# Blender 4.0.2
# www.blender.org
mtllib board.mtl
o White_board
v -0.967823 0.011286 -0.425082
v -0.988159 0.032076 0.485333
v -0.967506 0.032076 -0.424773
v -0.988159 0.034573 0.485333
v -0.970414 0.037407 -0.427606
v -0.981777 0.037407 -0.438665
v -1.009708 0.034832 0.504479
v -0.990810 0.028616 -0.447448
v -0.990810 0.013638 -0.447448
v -1.012468 0.013638 0.506928
v -0.991524 0.004814 0.488325
v -0.967823 0.007643 -0.425082
v -0.991193 0.037407 0.488031
v -1.003046 0.037407 0.498564
v -1.012468 0.028616 0.506928
v -1.009708 0.007418 0.504479
v -1.003046 0.004832 0.498564
v -0.988489 0.007643 0.485627
v -0.988489 0.011286 0.485627
v -0.967505 0.034573 -0.424773
v -0.988164 0.034832 -0.444877
v -0.988164 0.007418 -0.444877
v -0.981777 0.004832 -0.438665
v -0.970731 0.004813 -0.427915
v 0.988489 0.011286 0.485627
v 0.988159 0.032076 0.485333
v 0.967506 0.032076 -0.424773
v 0.967505 0.034573 -0.424773
v 0.988159 0.034573 0.485333
v 0.970414 0.037407 -0.427606
v 0.991193 0.037408 0.488031
v 0.981777 0.037407 -0.438665
v 1.003046 0.037408 0.498564
v 0.988164 0.034832 -0.444877
v 1.009708 0.034832 0.504479
v 0.990810 0.028616 -0.447448
v 1.012468 0.028616 0.506928
v 0.990810 0.013638 -0.447448
v 1.012468 0.013638 0.506928
v 0.988164 0.007418 -0.444877
v 1.009708 0.007418 0.504479
v 0.981777 0.004832 -0.438665
v 1.003046 0.004832 0.498564
v 0.970731 0.004814 -0.427915
v 0.991524 0.004814 0.488325
v 0.967823 0.007643 -0.425082
v 0.988489 0.007643 0.485627
v 0.967823 0.011286 -0.425082
v -0.977800 0.003917 0.503258
v -0.984617 0.001049 0.482373
v -1.013901 0.003974 0.501590
v -1.013436 0.003974 0.481069
v -1.016918 0.010921 0.501451
v -1.016453 0.010921 0.480932
v -1.016918 0.031445 0.501451
v -1.014059 0.031444 0.508531
v -1.014059 0.010917 0.508531
v -1.012694 0.005246 0.507319
v -1.006618 0.001086 0.501927
v -1.006841 0.031441 0.511745
v -1.006776 0.003963 0.508869
v -0.985083 0.001049 0.502921
v -1.006841 0.010907 0.511745
v -0.985241 0.003929 0.509871
v -0.985306 0.010880 0.512750
v -0.979265 0.005195 0.508872
v -0.977958 0.010871 0.510210
v -0.977957 0.031431 0.510210
v -0.985306 0.031434 0.512750
v -0.979265 0.037109 0.508872
v -0.977800 0.038385 0.503258
v -0.985083 0.041264 0.502921
v -0.985241 0.038385 0.509871
v -1.006776 0.038386 0.508869
v -1.012694 0.037112 0.507319
v -1.013901 0.038386 0.501590
v -1.006618 0.041262 0.501927
v -1.016453 0.031445 0.480932
v -0.984617 0.041264 0.482373
v -0.974783 0.031430 0.503397
v -0.974783 0.010867 0.503397
v -0.974316 0.010867 0.482839
v -1.013278 0.031444 0.474128
v -1.011971 0.037112 0.475462
v -1.013436 0.038386 0.481069
v -1.006152 0.041262 0.481398
v -1.013278 0.010917 0.474128
v -1.005995 0.038386 0.474456
v -1.005929 0.031441 0.471580
v -0.984459 0.038385 0.475423
v -1.011971 0.005246 0.475462
v -1.006152 0.001086 0.481398
v -1.005929 0.010907 0.471580
v -0.984394 0.031434 0.472545
v -0.978541 0.037109 0.476966
v -0.977333 0.038385 0.482703
v -0.974316 0.031430 0.482839
v -0.977176 0.031431 0.475751
v -0.984394 0.010880 0.472545
v -0.977175 0.010871 0.475751
v -1.005995 0.003963 0.474456
v -0.978541 0.005195 0.476966
v -0.977333 0.003917 0.482703
v -0.984459 0.003929 0.475423
v -0.963635 0.001049 -0.442204
v -0.985193 0.001086 -0.442187
v -0.992950 0.003974 -0.421660
v -0.995504 0.010920 -0.442179
v -0.995970 0.010920 -0.421660
v -0.995504 0.031444 -0.442179
v -0.992326 0.031443 -0.449122
v -0.992326 0.010917 -0.449122
v -0.991018 0.005246 -0.447849
v -0.992484 0.003974 -0.442181
v -0.984970 0.031441 -0.452006
v -0.985036 0.003963 -0.449130
v -0.984970 0.010907 -0.452006
v -0.991018 0.037112 -0.447850
v -0.963477 0.003928 -0.449153
v -0.985193 0.041262 -0.442187
v -0.985036 0.038386 -0.449130
v -0.963477 0.038385 -0.449153
v -0.963412 0.031434 -0.452032
v -0.957553 0.037109 -0.447884
v -0.953324 0.031430 -0.442212
v -0.956186 0.031431 -0.449161
v -0.963412 0.010880 -0.452032
v -0.956186 0.010871 -0.449161
v -0.953324 0.010867 -0.442212
v -0.957553 0.005195 -0.447884
v -0.992484 0.038386 -0.442181
v -0.985659 0.041262 -0.421659
v -0.995970 0.031444 -0.421660
v -0.964101 0.041264 -0.421655
v -0.963635 0.041264 -0.442204
v -0.956344 0.038385 -0.442209
v -0.953791 0.031430 -0.421654
v -0.956344 0.003917 -0.442209
v -0.956810 0.003917 -0.421654
v -0.993107 0.031443 -0.414719
v -0.991741 0.037112 -0.415992
v -0.992950 0.038386 -0.421660
v -0.993107 0.010917 -0.414719
v -0.985816 0.038386 -0.414716
v -0.985882 0.031441 -0.411840
v -0.964259 0.038385 -0.414706
v -0.991741 0.005246 -0.415992
v -0.985659 0.001086 -0.421659
v -0.985882 0.010907 -0.411840
v -0.985816 0.003963 -0.414716
v -0.964259 0.003928 -0.414706
v -0.964101 0.001049 -0.421655
v -0.964324 0.010880 -0.411827
v -0.964324 0.031434 -0.411827
v -0.958277 0.005195 -0.415979
v -0.953791 0.010867 -0.421654
v -0.956968 0.010871 -0.414702
v -0.956968 0.031431 -0.414702
v -0.958277 0.037109 -0.415979
v -0.956811 0.038385 -0.421654
v 0.985083 0.001049 0.502921
v 0.977333 0.003917 0.482703
v 0.977800 0.003917 0.503258
v 0.984617 0.001049 0.482373
v 1.006618 0.001086 0.501927
v 1.006152 0.001086 0.481398
v 1.013901 0.003974 0.501590
v 1.013436 0.003974 0.481069
v 1.016918 0.010921 0.501451
v 1.016453 0.010921 0.480932
v 1.016918 0.031445 0.501451
v 1.014059 0.031444 0.508531
v 1.014059 0.010917 0.508531
v 1.012694 0.005246 0.507319
v 1.006841 0.031441 0.511745
v 1.006776 0.003963 0.508869
v 1.006841 0.010907 0.511745
v 0.985241 0.003929 0.509871
v 0.985306 0.010880 0.512750
v 0.979265 0.005195 0.508872
v 0.974783 0.010867 0.503397
v 0.977958 0.010871 0.510210
v 0.974783 0.031430 0.503397
v 0.977957 0.031431 0.510210
v 0.985306 0.031434 0.512750
v 0.979265 0.037109 0.508872
v 0.977800 0.038385 0.503258
v 0.985083 0.041265 0.502921
v 0.985241 0.038385 0.509871
v 1.006776 0.038386 0.508869
v 1.006618 0.041262 0.501927
v 1.012694 0.037112 0.507319
v 1.013901 0.038386 0.501590
v 1.013436 0.038386 0.481069
v 1.006152 0.041262 0.481398
v 1.016453 0.031445 0.480932
v 0.984617 0.041265 0.482373
v 0.977333 0.038385 0.482703
v 0.974316 0.031430 0.482839
v 0.974316 0.010867 0.482839
v 1.013278 0.031444 0.474128
v 1.011971 0.037112 0.475462
v 1.013278 0.010917 0.474128
v 1.005995 0.038386 0.474456
v 1.005929 0.031441 0.471580
v 0.984459 0.038385 0.475423
v 1.011971 0.005246 0.475462
v 1.005929 0.010907 0.471580
v 0.984394 0.031434 0.472545
v 0.978541 0.037109 0.476966
v 0.977176 0.031431 0.475751
v 0.984394 0.010880 0.472545
v 0.977175 0.010871 0.475751
v 1.005995 0.003963 0.474456
v 0.978541 0.005195 0.476966
v 0.984459 0.003929 0.475423
v 0.956810 0.003917 -0.421654
v 0.963635 0.001049 -0.442204
v 0.956344 0.003917 -0.442209
v 0.964101 0.001049 -0.421655
v 0.985193 0.001086 -0.442187
v 0.985659 0.001086 -0.421659
v 0.992484 0.003974 -0.442181
v 0.992950 0.003974 -0.421660
v 0.995504 0.010921 -0.442179
v 0.995970 0.010921 -0.421660
v 0.995504 0.031445 -0.442179
v 0.992326 0.031444 -0.449122
v 0.992326 0.010917 -0.449122
v 0.991018 0.005246 -0.447849
v 0.984970 0.031441 -0.452006
v 0.985036 0.003963 -0.449130
v 0.984970 0.010907 -0.452006
v 0.991018 0.037112 -0.447850
v 0.963477 0.003928 -0.449153
v 0.992484 0.038386 -0.442181
v 0.985193 0.041262 -0.442187
v 0.985036 0.038386 -0.449130
v 0.963635 0.041264 -0.442204
v 0.963477 0.038385 -0.449153
v 0.963412 0.031434 -0.452032
v 0.957553 0.037109 -0.447884
v 0.956344 0.038385 -0.442209
v 0.953324 0.031430 -0.442212
v 0.956186 0.031431 -0.449161
v 0.963412 0.010880 -0.452032
v 0.956186 0.010871 -0.449161
v 0.953324 0.010867 -0.442212
v 0.957553 0.005195 -0.447884
v 0.992950 0.038386 -0.421660
v 0.985659 0.041262 -0.421659
v 0.995970 0.031445 -0.421660
v 0.964101 0.041264 -0.421655
v 0.956811 0.038385 -0.421654
v 0.953791 0.031430 -0.421654
v 0.953791 0.010867 -0.421654
v 0.993107 0.031444 -0.414719
v 0.991741 0.037112 -0.415992
v 0.993107 0.010917 -0.414719
v 0.985816 0.038386 -0.414716
v 0.985882 0.031441 -0.411840
v 0.964259 0.038385 -0.414706
v 0.991741 0.005246 -0.415992
v 0.985882 0.010907 -0.411840
v 0.985816 0.003963 -0.414716
v 0.964259 0.003929 -0.414706
v 0.964324 0.010880 -0.411827
v 0.964324 0.031434 -0.411827
v 0.958277 0.005195 -0.415979
v 0.956968 0.010871 -0.414702
v 0.956968 0.031431 -0.414702
v 0.958277 0.037109 -0.415979
v -0.720514 0.029565 0.572032
v -0.724994 0.029565 0.571435
v -0.729014 0.029565 0.569770
v -0.723301 0.029565 0.558915
v -0.722807 0.029565 0.561716
v -0.721385 0.029565 0.564179
v -0.719206 0.029565 0.566007
v -0.716534 0.029565 0.566980
v -0.720990 0.029565 0.553651
v -0.722807 0.029565 0.556114
v -0.732604 0.029565 0.567024
v -0.735349 0.029565 0.563434
v -0.737014 0.029565 0.559414
v -0.737612 0.029565 0.554934
v -0.724727 0.029565 0.533118
v -0.724147 0.029565 0.536407
v -0.721564 0.029565 0.539299
v -0.716781 0.029565 0.523649
v -0.719919 0.029565 0.524791
v -0.722478 0.029565 0.526937
v -0.724147 0.029565 0.529829
v -0.737612 0.029565 0.497032
v -0.715112 0.029565 0.497032
v -0.715112 0.029565 0.523649
v -0.713442 0.029565 0.523649
v -0.710304 0.029565 0.524791
v -0.707746 0.029565 0.526937
v -0.706076 0.029565 0.529829
v -0.705496 0.029565 0.533118
v -0.692612 0.029565 0.554934
v -0.692612 0.029565 0.497032
v -0.709233 0.029565 0.553651
v -0.707416 0.029565 0.556114
v -0.706922 0.029565 0.558915
v -0.701210 0.029565 0.569770
v -0.697619 0.029565 0.567024
v -0.694874 0.029565 0.563434
v -0.693209 0.029565 0.559414
v -0.706076 0.029565 0.536407
v -0.708659 0.029565 0.539299
v -0.715112 0.029565 0.572032
v -0.709709 0.029565 0.572032
v -0.705230 0.029565 0.571435
v -0.707416 0.029565 0.561716
v -0.708838 0.029565 0.564179
v -0.711017 0.029565 0.566007
v -0.713690 0.029565 0.566980
v -0.715112 0.029565 0.566980
v -0.720514 0.034065 0.572032
v -0.724994 0.034065 0.571435
v -0.729014 0.034065 0.569770
v -0.723301 0.034065 0.558915
v -0.722807 0.034065 0.561716
v -0.721385 0.034065 0.564179
v -0.719206 0.034065 0.566007
v -0.716534 0.034065 0.566980
v -0.720990 0.034065 0.553651
v -0.722807 0.034065 0.556114
v -0.732604 0.034065 0.567024
v -0.735349 0.034065 0.563434
v -0.737014 0.034065 0.559414
v -0.737612 0.034065 0.554934
v -0.724727 0.034065 0.533118
v -0.724147 0.034065 0.536407
v -0.721564 0.034065 0.539299
v -0.716781 0.034065 0.523649
v -0.719919 0.034065 0.524791
v -0.722478 0.034065 0.526937
v -0.724147 0.034065 0.529829
v -0.737612 0.034065 0.497032
v -0.715112 0.034065 0.497032
v -0.715112 0.034065 0.523649
v -0.713442 0.034065 0.523649
v -0.710304 0.034065 0.524791
v -0.707746 0.034065 0.526937
v -0.706076 0.034065 0.529829
v -0.705496 0.034065 0.533118
v -0.692612 0.034065 0.554934
v -0.692612 0.034065 0.497032
v -0.709233 0.034065 0.553651
v -0.707416 0.034065 0.556114
v -0.706922 0.034065 0.558915
v -0.701210 0.034065 0.569770
v -0.697619 0.034065 0.567024
v -0.694874 0.034065 0.563434
v -0.693209 0.034065 0.559414
v -0.706076 0.034065 0.536407
v -0.708659 0.034065 0.539299
v -0.715112 0.034065 0.572032
v -0.709709 0.034065 0.572032
v -0.705230 0.034065 0.571435
v -0.707416 0.034065 0.561716
v -0.708838 0.034065 0.564179
v -0.711017 0.034065 0.566007
v -0.713690 0.034065 0.566980
v -0.715112 0.034065 0.566980
v 0.728101 0.029565 0.572032
v 0.723621 0.029565 0.571435
v 0.719601 0.029565 0.569770
v 0.725314 0.029565 0.558915
v 0.725807 0.029565 0.561716
v 0.727230 0.029565 0.564179
v 0.729408 0.029565 0.566007
v 0.732081 0.029565 0.566980
v 0.727625 0.029565 0.553651
v 0.725807 0.029565 0.556114
v 0.716011 0.029565 0.567024
v 0.713265 0.029565 0.563434
v 0.711600 0.029565 0.559414
v 0.711003 0.029565 0.554934
v 0.723887 0.029565 0.533118
v 0.724467 0.029565 0.536407
v 0.727050 0.029565 0.539299
v 0.731833 0.029565 0.523649
v 0.728695 0.029565 0.524791
v 0.726137 0.029565 0.526937
v 0.724467 0.029565 0.529829
v 0.711003 0.029565 0.497032
v 0.733503 0.029565 0.497032
v 0.733503 0.029565 0.523649
v 0.735173 0.029565 0.523649
v 0.738311 0.029565 0.524791
v 0.740869 0.029565 0.526937
v 0.742538 0.029565 0.529829
v 0.743118 0.029565 0.533118
v 0.756003 0.029565 0.554934
v 0.756003 0.029565 0.497032
v 0.739381 0.029565 0.553651
v 0.741198 0.029565 0.556114
v 0.741692 0.029565 0.558915
v 0.747405 0.029565 0.569770
v 0.750995 0.029565 0.567024
v 0.753740 0.029565 0.563434
v 0.755406 0.029565 0.559414
v 0.742538 0.029565 0.536407
v 0.739955 0.029565 0.539299
v 0.733503 0.029565 0.572032
v 0.738905 0.029565 0.572032
v 0.743385 0.029565 0.571435
v 0.741198 0.029565 0.561716
v 0.739776 0.029565 0.564179
v 0.737597 0.029565 0.566007
v 0.734925 0.029565 0.566980
v 0.733503 0.029565 0.566980
v 0.728101 0.034065 0.572032
v 0.723621 0.034065 0.571435
v 0.719601 0.034065 0.569770
v 0.725314 0.034065 0.558915
v 0.725807 0.034065 0.561716
v 0.727230 0.034065 0.564179
v 0.729408 0.034065 0.566007
v 0.732081 0.034065 0.566980
v 0.727625 0.034065 0.553651
v 0.725807 0.034065 0.556114
v 0.716011 0.034065 0.567024
v 0.713265 0.034065 0.563434
v 0.711600 0.034065 0.559414
v 0.711003 0.034065 0.554934
v 0.723887 0.034065 0.533118
v 0.724467 0.034065 0.536407
v 0.727050 0.034065 0.539299
v 0.731833 0.034065 0.523649
v 0.728695 0.034065 0.524791
v 0.726137 0.034065 0.526937
v 0.724467 0.034065 0.529829
v 0.711003 0.034065 0.497032
v 0.733503 0.034065 0.497032
v 0.733503 0.034065 0.523649
v 0.735173 0.034065 0.523649
v 0.738311 0.034065 0.524791
v 0.740869 0.034065 0.526937
v 0.742538 0.034065 0.529829
v 0.743118 0.034065 0.533118
v 0.756003 0.034065 0.554934
v 0.756003 0.034065 0.497032
v 0.739381 0.034065 0.553651
v 0.741198 0.034065 0.556114
v 0.741692 0.034065 0.558915
v 0.747405 0.034065 0.569770
v 0.750995 0.034065 0.567024
v 0.753740 0.034065 0.563434
v 0.755406 0.034065 0.559414
v 0.742538 0.034065 0.536407
v 0.739955 0.034065 0.539299
v 0.733503 0.034065 0.572032
v 0.738905 0.034065 0.572032
v 0.743385 0.034065 0.571435
v 0.741198 0.034065 0.561716
v 0.739776 0.034065 0.564179
v 0.737597 0.034065 0.566007
v 0.734925 0.034065 0.566980
v 0.733503 0.034065 0.566980
v -0.844247 0.038053 -0.449734
v -0.844247 0.002668 -0.449734
v -0.844382 0.000388 -0.443778
v -0.844434 -0.036966 -0.441499
v -0.844531 -0.041265 -0.437229
v -0.844777 -0.039871 -0.426387
v -0.844745 -0.032816 -0.427781
v -0.844621 0.040333 -0.433263
v -0.844777 -0.034210 -0.426387
v -0.844745 -0.041265 -0.427781
v -0.844718 -0.032816 -0.428993
v -0.844621 -0.028518 -0.433263
v -0.844434 -0.001893 -0.441499
v -0.844299 0.040333 -0.447454
v -0.844299 0.000388 -0.447454
v 0.844247 0.038053 -0.449734
v 0.844247 0.002668 -0.449734
v -0.000000 0.001217 -0.450744
v 0.844299 0.000388 -0.447454
v 0.844382 0.000388 -0.443778
v 0.844434 -0.036966 -0.441499
v 0.844531 -0.041264 -0.437229
v 0.844745 -0.041264 -0.427781
v 0.844777 -0.039870 -0.426387
v 0.844718 -0.032816 -0.428993
v 0.844621 -0.028518 -0.433263
v 0.844621 0.040333 -0.433263
v 0.844777 -0.034210 -0.426387
v 0.844745 -0.032816 -0.427781
v 0.844434 -0.001893 -0.441499
v 0.844299 0.040333 -0.447454
v -0.844247 0.002668 -0.449734
v 0.844247 0.002668 -0.449734
vn 0.9997 -0.0001 0.0227
vn 0.9997 -0.0000 0.0227
vn 0.8421 0.5390 0.0191
vn 0.0229 0.9986 0.0473
vn 0.0237 0.9986 -0.0473
vn -0.0381 0.9959 -0.0820
vn -0.0389 0.9956 0.0856
vn -0.3098 0.6917 -0.6523
vn -0.3151 0.6800 0.6620
vn -0.9942 0.1050 -0.0226
vn -0.9942 0.1050 -0.0225
vn -0.9942 -0.1050 -0.0225
vn -0.9942 -0.1050 -0.0226
vn -0.3105 -0.6911 -0.6527
vn -0.3151 -0.6797 0.6624
vn -0.0396 -0.9956 -0.0847
vn -0.0404 -0.9953 0.0879
vn 0.0229 -0.9986 0.0481
vn 0.0237 -0.9986 -0.0477
vn 0.8782 -0.4778 0.0198
vn 0.9998 -0.0000 0.0224
vn -0.0000 1.0000 -0.0000
vn -0.0237 0.9986 -0.0473
vn -0.0000 0.5067 -0.8621
vn 0.3151 -0.6797 0.6624
vn -0.0000 -0.0988 -0.9951
vn -0.0000 -0.4627 0.8865
vn -0.0000 0.0931 0.9957
vn 0.3151 0.6800 0.6620
vn -0.0000 -0.4476 -0.8942
vn -0.0000 -0.0000 -1.0000
vn 0.0397 -0.9956 -0.0847
vn -0.0229 -0.9986 0.0481
vn -0.0000 -0.0000 1.0000
vn -0.9997 -0.0001 0.0227
vn -0.8421 0.5390 0.0191
vn -0.9997 -0.0000 0.0227
vn -0.0229 0.9986 0.0473
vn 0.0381 0.9959 -0.0820
vn 0.0389 0.9956 0.0856
vn 0.3098 0.6917 -0.6523
vn 0.9942 0.1050 -0.0225
vn 0.9942 0.1050 -0.0226
vn 0.9942 -0.1050 -0.0226
vn 0.9942 -0.1050 -0.0225
vn 0.3105 -0.6911 -0.6526
vn 0.0404 -0.9953 0.0879
vn -0.0237 -0.9986 -0.0477
vn -0.8782 -0.4778 0.0198
vn -0.9998 -0.0000 0.0224
vn -0.0000 0.0988 -0.9951
vn -0.0000 -1.0000 -0.0000
vn -0.0000 -0.0931 0.9957
vn -0.0000 0.5231 0.8523
vn 0.0809 -0.9924 0.0931
vn 0.6882 -0.7252 -0.0210
vn 0.6904 -0.7215 0.0528
vn 0.0870 -0.9924 -0.0866
vn -0.0900 -0.9922 0.0866
vn -0.6889 -0.7245 0.0210
vn -0.0839 -0.9921 -0.0931
vn -0.6905 -0.7214 -0.0529
vn -0.9930 -0.0942 0.0713
vn -0.9887 -0.0940 -0.1169
vn -0.9930 0.0949 0.0707
vn -0.7141 0.0365 0.6991
vn -0.7141 -0.0364 0.6991
vn -0.5814 -0.5830 0.5676
vn -0.1312 0.0901 0.9873
vn -0.0679 -0.7082 0.7027
vn -0.1312 -0.0900 0.9873
vn 0.0008 -0.7049 0.7093
vn 0.0396 -0.0897 0.9952
vn 0.5364 -0.5894 0.6041
vn 0.9887 -0.0939 0.1167
vn 0.6645 -0.0372 0.7463
vn 0.9887 0.0938 0.1167
vn 0.6644 0.0372 0.7464
vn 0.0397 0.0897 0.9952
vn 0.5371 0.5889 0.6039
vn 0.6911 0.7208 0.0528
vn 0.0824 0.9922 0.0931
vn 0.0015 0.7047 0.7095
vn -0.0671 0.7084 0.7027
vn -0.0885 0.9923 0.0866
vn -0.5806 0.5834 0.5679
vn -0.6882 0.7252 0.0210
vn -0.6904 0.7215 -0.0528
vn -0.0824 0.9922 -0.0931
vn -0.9887 0.0940 -0.1169
vn 0.0885 0.9923 -0.0866
vn 0.6889 0.7245 -0.0210
vn 0.9930 0.0941 -0.0711
vn 0.9930 -0.0941 -0.0711
vn -0.6644 0.0371 -0.7464
vn -0.5371 0.5890 -0.6038
vn -0.6638 -0.0372 -0.7470
vn -0.0030 0.7049 -0.7093
vn -0.0412 0.0898 -0.9951
vn 0.0656 0.7083 -0.7029
vn -0.5378 -0.5885 -0.6036
vn -0.0412 -0.0897 -0.9951
vn 0.1297 0.0900 -0.9875
vn 0.5806 0.5833 -0.5680
vn 0.7141 0.0365 -0.6991
vn 0.1297 -0.0901 -0.9875
vn 0.7148 -0.0364 -0.6984
vn -0.0038 -0.7047 -0.7095
vn 0.5798 -0.5838 -0.5683
vn 0.0648 -0.7085 -0.7027
vn 0.6867 -0.7251 0.0523
vn 0.0855 -0.9923 -0.0893
vn 0.6920 -0.7216 -0.0213
vn 0.0832 -0.9924 0.0904
vn -0.0862 -0.9922 -0.0904
vn -0.0885 -0.9921 0.0893
vn -0.6874 -0.7244 -0.0523
vn -0.6927 -0.7209 0.0214
vn -0.9887 -0.0943 -0.1164
vn -0.9930 -0.0941 0.0721
vn -0.9887 0.0943 -0.1164
vn -0.6820 0.0365 -0.7304
vn -0.6820 -0.0364 -0.7304
vn -0.5546 -0.5831 -0.5936
vn -0.0862 0.0901 -0.9922
vn -0.0358 -0.7080 -0.7053
vn -0.0862 -0.0900 -0.9922
vn -0.5539 0.5835 -0.5939
vn 0.0328 -0.7050 -0.7084
vn -0.6866 0.7251 -0.0523
vn -0.0847 0.9923 -0.0904
vn -0.0351 0.7084 -0.7050
vn 0.0870 0.9922 -0.0893
vn 0.0343 0.7049 -0.7084
vn 0.0847 0.0897 -0.9924
vn 0.5642 0.5889 -0.5787
vn 0.6927 0.7209 -0.0214
vn 0.9930 0.0938 -0.0717
vn 0.6972 0.0371 -0.7159
vn 0.0847 -0.0898 -0.9924
vn 0.6974 -0.0372 -0.7157
vn 0.9930 -0.0939 -0.0717
vn 0.5634 -0.5893 -0.5791
vn -0.6920 0.7216 0.0214
vn -0.0870 0.9922 0.0893
vn -0.9930 0.0940 0.0717
vn 0.0847 0.9923 0.0904
vn 0.6874 0.7244 0.0522
vn 0.9888 0.0941 0.1160
vn 0.9888 -0.0941 0.1160
vn -0.6973 0.0371 0.7158
vn -0.5638 0.5891 0.5789
vn -0.6973 -0.0371 0.7158
vn -0.0351 0.7049 0.7084
vn -0.0862 0.0898 0.9922
vn 0.0335 0.7083 0.7052
vn -0.5645 -0.5886 0.5787
vn -0.0862 -0.0897 0.9922
vn -0.0358 -0.7047 0.7086
vn 0.0328 -0.7085 0.7050
vn 0.0847 -0.0901 0.9923
vn 0.0847 0.0900 0.9923
vn 0.5535 -0.5838 0.5940
vn 0.6821 -0.0365 0.7304
vn 0.6820 0.0365 0.7304
vn 0.5542 0.5833 0.5938
vn -0.0809 -0.9924 0.0931
vn -0.6904 -0.7215 0.0528
vn -0.6882 -0.7252 -0.0210
vn -0.0870 -0.9924 -0.0866
vn 0.0839 -0.9921 -0.0931
vn 0.0900 -0.9922 0.0866
vn 0.6889 -0.7245 0.0210
vn 0.6905 -0.7214 -0.0529
vn 0.9930 -0.0942 0.0713
vn 0.9887 -0.0940 -0.1169
vn 0.9930 0.0943 0.0713
vn 0.7141 0.0365 0.6991
vn 0.7141 -0.0364 0.6991
vn 0.5813 -0.5830 0.5676
vn 0.1312 0.0901 0.9873
vn 0.0679 -0.7083 0.7027
vn 0.1312 -0.0900 0.9873
vn -0.0008 -0.7049 0.7093
vn -0.0397 -0.0897 0.9952
vn -0.5364 -0.5893 0.6041
vn -0.9887 -0.0938 0.1167
vn -0.6645 -0.0372 0.7464
vn -0.9887 0.0938 0.1167
vn -0.6644 0.0372 0.7464
vn -0.0397 0.0897 0.9952
vn -0.5371 0.5889 0.6039
vn -0.6911 0.7208 0.0528
vn -0.0824 0.9922 0.0931
vn -0.0015 0.7047 0.7095
vn 0.0671 0.7084 0.7026
vn 0.0885 0.9923 0.0866
vn 0.5805 0.5834 0.5680
vn 0.6882 0.7252 0.0210
vn 0.6904 0.7215 -0.0528
vn 0.0824 0.9922 -0.0931
vn 0.9887 0.0940 -0.1169
vn -0.0885 0.9923 -0.0866
vn -0.6889 0.7245 -0.0210
vn -0.9930 0.0941 -0.0711
vn -0.9930 -0.0941 -0.0711
vn 0.6644 0.0371 -0.7464
vn 0.5371 0.5890 -0.6038
vn 0.6638 -0.0372 -0.7470
vn 0.0030 0.7049 -0.7093
vn 0.0412 0.0898 -0.9951
vn -0.0656 0.7083 -0.7029
vn 0.5378 -0.5885 -0.6036
vn 0.0412 -0.0897 -0.9951
vn -0.1297 0.0900 -0.9875
vn -0.5806 0.5833 -0.5680
vn -0.7141 0.0365 -0.6991
vn -0.1297 -0.0901 -0.9875
vn -0.7148 -0.0364 -0.6984
vn 0.0038 -0.7047 -0.7095
vn -0.5799 -0.5838 -0.5682
vn -0.0648 -0.7085 -0.7027
vn -0.6867 -0.7251 0.0523
vn -0.6920 -0.7216 -0.0213
vn -0.0855 -0.9923 -0.0893
vn -0.0831 -0.9924 0.0904
vn 0.0862 -0.9922 -0.0904
vn 0.0885 -0.9921 0.0892
vn 0.6874 -0.7244 -0.0523
vn 0.6927 -0.7209 0.0214
vn 0.9887 -0.0943 -0.1164
vn 0.9930 -0.0941 0.0721
vn 0.9887 0.0950 -0.1157
vn 0.6820 0.0365 -0.7304
vn 0.6820 -0.0364 -0.7304
vn 0.5546 -0.5831 -0.5936
vn 0.0862 0.0901 -0.9922
vn 0.0358 -0.7080 -0.7053
vn 0.0862 -0.0900 -0.9922
vn 0.5539 0.5835 -0.5939
vn -0.0328 -0.7050 -0.7084
vn 0.6866 0.7251 -0.0523
vn 0.0847 0.9923 -0.0904
vn 0.0351 0.7084 -0.7050
vn -0.0870 0.9922 -0.0893
vn -0.0343 0.7049 -0.7084
vn -0.0847 0.0897 -0.9924
vn -0.5642 0.5889 -0.5787
vn -0.6927 0.7209 -0.0214
vn -0.9930 0.0938 -0.0717
vn -0.6972 0.0371 -0.7159
vn -0.0847 -0.0898 -0.9924
vn -0.6974 -0.0372 -0.7157
vn -0.9930 -0.0939 -0.0717
vn -0.5635 -0.5892 -0.5791
vn 0.6920 0.7216 0.0214
vn 0.0870 0.9922 0.0893
vn 0.9930 0.0940 0.0717
vn -0.0847 0.9923 0.0904
vn -0.6874 0.7244 0.0522
vn -0.9888 0.0941 0.1160
vn -0.9888 -0.0941 0.1160
vn 0.6973 0.0371 0.7158
vn 0.5638 0.5891 0.5789
vn 0.6973 -0.0371 0.7158
vn 0.0351 0.7049 0.7084
vn 0.0862 0.0898 0.9922
vn -0.0335 0.7083 0.7051
vn 0.5646 -0.5886 0.5786
vn 0.0862 -0.0897 0.9922
vn 0.0358 -0.7047 0.7086
vn -0.0328 -0.7085 0.7050
vn -0.0847 -0.0901 0.9923
vn -0.0847 0.0900 0.9923
vn -0.5535 -0.5838 0.5940
vn -0.6821 -0.0365 0.7303
vn -0.6820 0.0365 0.7304
vn -0.5543 0.5833 0.5937
vn 0.9837 -0.0000 -0.1800
vn 0.8903 -0.0000 -0.4554
vn 0.9973 -0.0000 0.0736
vn 0.1736 -0.0000 -0.9848
vn -0.1736 -0.0000 0.9848
vn -0.1737 -0.0000 0.9848
vn -0.9973 -0.0000 0.0736
vn -0.9156 -0.0000 0.4021
vn 0.0389 -0.0000 0.9992
vn 0.2572 -0.0000 0.9664
vn 1.0000 -0.0000 -0.0000
vn 0.9397 -0.0000 0.3420
vn -1.0000 -0.0000 -0.0000
vn -1.0000 -0.0000 0.0095
vn -1.0000 -0.0000 0.0096
vn 0.7660 -0.0000 0.6428
vn 0.5000 -0.0000 0.8660
vn 0.1737 -0.0000 0.9848
vn 0.1736 -0.0000 0.9848
vn 0.9156 -0.0000 0.4021
vn -0.7071 -0.0000 0.7071
vn -0.5013 -0.0000 0.8653
vn -0.8653 -0.0000 0.5013
vn -0.9664 -0.0000 0.2572
vn 0.9973 -0.0001 0.0736
vn -0.0389 -0.0000 0.9992
vn -0.2572 -0.0000 0.9664
vn 0.9397 -0.0000 -0.3420
vn 0.7660 -0.0000 -0.6428
vn 0.5000 -0.0000 -0.8660
vn -0.9397 -0.0000 0.3420
vn 1.0000 -0.0000 0.0096
vn -0.7660 -0.0000 0.6428
vn -0.5000 -0.0000 0.8660
vn -0.9837 -0.0000 -0.1800
vn -0.8903 -0.0000 -0.4554
vn 0.9664 -0.0000 0.2572
vn 1.0000 -0.0000 0.0095
vn 0.8653 -0.0000 0.5013
vn 0.9664 -0.0000 0.2571
vn 0.7071 -0.0000 0.7071
vn 0.5013 -0.0000 0.8653
vn -0.1736 -0.0000 -0.9848
vn -0.5000 -0.0000 -0.8660
vn -0.7660 -0.0000 -0.6428
vn -0.9397 -0.0000 -0.3420
vn -0.0000 0.0610 -0.9981
vn -0.0000 -0.0610 -0.9981
vn -0.0000 -0.9320 -0.3624
vn -0.0000 -0.0603 -0.9982
vn -0.9997 -0.0000 -0.0227
vn -0.9998 -0.0000 -0.0223
vn -0.9998 -0.0000 -0.0224
vn -0.0000 0.9909 -0.1343
vn -0.0000 -0.9357 -0.3529
vn -0.0000 -0.9558 -0.2941
vn -0.0000 -0.9915 0.1301
vn -0.0000 0.5715 -0.8206
vn -0.0000 -0.1088 -0.9941
vn -0.0000 -0.1923 0.9813
vn -0.0000 0.1923 0.9813
vn -0.0000 0.0588 0.9983
vn 0.9997 -0.0000 -0.0227
vn 0.9998 -0.0000 -0.0223
vn 0.9998 -0.0000 -0.0224
vn -0.0000 0.8796 0.4757
vn -0.0000 0.7886 0.6149
vn -0.0000 0.0930 0.9957
vn -0.0000 -0.0604 -0.9982
vt 0.025568 0.474397
vt 0.424787 0.476899
vt 0.424780 0.477995
vt 0.025561 0.475492
vt 0.425982 0.479803
vt 0.024337 0.477286
vt 0.430686 0.484925
vt 0.019569 0.482348
vt 0.433326 0.488018
vt 0.016890 0.485408
vt 0.434409 0.490998
vt 0.015770 0.488374
vt 0.434367 0.497566
vt 0.015729 0.494942
vt 0.433248 0.500534
vt 0.016811 0.497924
vt 0.430569 0.503596
vt 0.019452 0.501019
vt 0.425934 0.508517
vt 0.024024 0.505998
vt 0.424710 0.510309
vt 0.025226 0.507805
vt 0.424700 0.511906
vt 0.025216 0.509402
vt 0.587585 0.020211
vt 0.593675 0.288562
vt 0.017033 0.020211
vt 0.025002 0.471000
vt 0.894359 0.475758
vt 0.026324 0.472723
vt 0.019929 0.448262
vt 0.902588 0.455924
vt 0.016991 0.451077
vt 0.015729 0.410665
vt 0.884529 0.430820
vt 0.016820 0.413643
vt 0.025520 0.423268
vt 0.024286 0.421483
vt 0.874164 0.442956
vt 0.019830 0.466353
vt 0.016923 0.463507
vt 0.015729 0.460571
vt 0.902520 0.468354
vt 0.026346 0.442093
vt 0.026355 0.440495
vt 0.893332 0.446837
vt 0.880432 0.436629
vt 0.875480 0.441230
vt 0.025483 0.424865
vt 0.844096 0.478876
vt 0.444872 0.480684
vt 0.444870 0.479589
vt 0.844098 0.479971
vt 0.443662 0.482488
vt 0.845314 0.481770
vt 0.438935 0.487588
vt 0.850059 0.486854
vt 0.436281 0.490670
vt 0.852724 0.489926
vt 0.435185 0.493644
vt 0.853831 0.492897
vt 0.435197 0.500213
vt 0.853842 0.499465
vt 0.436303 0.503185
vt 0.852747 0.502442
vt 0.438968 0.506259
vt 0.850092 0.505525
vt 0.443581 0.511201
vt 0.845498 0.510483
vt 0.444797 0.512998
vt 0.844288 0.512285
vt 0.444800 0.514596
vt 0.844291 0.513883
vt 0.893019 0.477467
vt 0.026318 0.473819
vt 0.875989 0.413300
vt 0.880858 0.418264
vt 0.025073 0.393559
vt 0.883590 0.421277
vt 0.884682 0.424253
vt 0.017110 0.401175
vt 0.019553 0.416657
vt 0.003509 0.993905
vt 0.013847 0.542272
vt 0.992375 0.993905
vt 0.015765 0.454002
vt 0.903782 0.458862
vt 0.025006 0.443800
vt 0.899682 0.453077
vt 0.026389 0.391832
vt 0.874780 0.410418
vt 0.874754 0.411513
vt 0.019979 0.398292
vt 0.015881 0.404098
vt 0.800089 0.231607
vt 0.810386 0.201422
vt 0.811444 0.230425
vt 0.799032 0.202603
vt 0.771086 0.232664
vt 0.761001 0.232594
vt 0.770028 0.203661
vt 0.758691 0.202320
vt 0.748394 0.232506
vt 0.747336 0.203502
vt 0.719390 0.233563
vt 0.721841 0.243666
vt 0.747054 0.243842
vt 0.754618 0.243895
vt 0.759696 0.238888
vt 0.765937 0.247756
vt 0.723040 0.252499
vt 0.755834 0.250207
vt 0.765726 0.278012
vt 0.747001 0.251406
vt 0.755658 0.275420
vt 0.748094 0.275367
vt 0.755605 0.282984
vt 0.760612 0.288062
vt 0.751744 0.294303
vt 0.749293 0.284200
vt 0.721471 0.296613
vt 0.722811 0.285276
vt 0.724133 0.276460
vt 0.716516 0.283971
vt 0.710169 0.290230
vt 0.705197 0.280110
vt 0.715300 0.277660
vt 0.714206 0.253698
vt 0.704139 0.251107
vt 0.715529 0.244882
vt 0.709253 0.241056
vt 0.708036 0.234744
vt 0.708248 0.204489
vt 0.696893 0.205670
vt 0.697951 0.234674
vt 0.718333 0.204559
vt 0.666637 0.205458
vt 0.668947 0.235732
vt 0.656552 0.205388
vt 0.656341 0.235643
vt 0.645198 0.206569
vt 0.646256 0.235573
vt 0.617252 0.236630
vt 0.616194 0.207627
vt 0.605897 0.237812
vt 0.606109 0.207556
vt 0.720924 0.194492
vt 0.714630 0.193187
vt 0.708283 0.199446
vt 0.702059 0.188057
vt 0.744886 0.193399
vt 0.712162 0.185606
vt 0.720995 0.184407
vt 0.711069 0.161645
vt 0.701002 0.159053
vt 0.752467 0.190931
vt 0.758727 0.197278
vt 0.763839 0.187228
vt 0.743687 0.184566
vt 0.721154 0.161716
vt 0.712374 0.155351
vt 0.706114 0.149003
vt 0.716252 0.141510
vt 0.719955 0.152882
vt 0.742593 0.160604
vt 0.743916 0.151789
vt 0.746508 0.141721
vt 0.753772 0.184636
vt 0.750210 0.153094
vt 0.756558 0.146834
vt 0.764051 0.156973
vt 0.752679 0.160675
vt 0.950066 0.342695
vt 0.939565 0.316142
vt 0.948581 0.315646
vt 0.939861 0.342125
vt 0.913581 0.316439
vt 0.913878 0.342422
vt 0.903377 0.315869
vt 0.903797 0.344105
vt 0.893295 0.317553
vt 0.893592 0.343536
vt 0.867312 0.317849
vt 0.869071 0.308710
vt 0.891612 0.307471
vt 0.897185 0.306035
vt 0.903129 0.311360
vt 0.908331 0.303162
vt 0.869765 0.300758
vt 0.898002 0.300338
vt 0.891240 0.300709
vt 0.906845 0.276114
vt 0.862185 0.306826
vt 0.897953 0.278863
vt 0.857925 0.311583
vt 0.852921 0.302814
vt 0.861814 0.300064
vt 0.852625 0.276831
vt 0.861765 0.278590
vt 0.869716 0.279284
vt 0.862582 0.272893
vt 0.856638 0.267567
vt 0.866471 0.261375
vt 0.868155 0.271456
vt 0.891191 0.279234
vt 0.890695 0.270218
vt 0.892455 0.261079
vt 0.897582 0.272101
vt 0.901842 0.267345
vt 0.858593 0.344328
vt 0.857107 0.317280
vt 0.848388 0.343758
vt 0.848091 0.317775
vt 0.867609 0.343833
vt 0.821340 0.345243
vt 0.822108 0.318072
vt 0.812323 0.345739
vt 0.810838 0.318691
vt 0.802119 0.345169
vt 0.801822 0.319186
vt 0.775838 0.319482
vt 0.776135 0.345466
vt 0.765634 0.318912
vt 0.765930 0.344895
vt 0.870358 0.352725
vt 0.864785 0.354162
vt 0.858840 0.348836
vt 0.852574 0.358223
vt 0.891834 0.352675
vt 0.862903 0.361047
vt 0.869665 0.360676
vt 0.862952 0.382522
vt 0.854059 0.385272
vt 0.898719 0.354558
vt 0.904045 0.348614
vt 0.909048 0.357383
vt 0.891140 0.360627
vt 0.900156 0.360131
vt 0.900205 0.381607
vt 0.909345 0.383365
vt 0.891189 0.382102
vt 0.870779 0.380962
vt 0.898322 0.388492
vt 0.904267 0.393818
vt 0.895499 0.398821
vt 0.892749 0.389929
vt 0.868450 0.400307
vt 0.871274 0.389978
vt 0.864388 0.388095
vt 0.859062 0.394040
vt 0.643207 0.053929
vt 0.606175 0.008396
vt 0.644058 0.009115
vt 0.632351 0.104256
vt 0.627587 0.075121
vt 0.631843 0.080073
vt 0.641661 0.135392
vt 0.639428 0.126841
vt 0.641822 0.126886
vt 0.681941 0.009835
vt 0.646019 0.053983
vt 0.652146 0.104632
vt 0.658013 0.075699
vt 0.655126 0.108837
vt 0.658318 0.134702
vt 0.650756 0.135565
vt 0.627797 0.064047
vt 0.626715 0.069566
vt 0.604324 0.105885
vt 0.630701 0.059231
vt 0.635076 0.055699
vt 0.640396 0.053876
vt 0.629213 0.108345
vt 0.628292 0.113045
vt 0.618326 0.131138
vt 0.612369 0.126401
vt 0.607862 0.120269
vt 0.605187 0.113447
vt 0.632565 0.135219
vt 0.625041 0.134070
vt 0.629034 0.117777
vt 0.631349 0.121969
vt 0.634959 0.125117
vt 0.680090 0.107324
vt 0.659094 0.070181
vt 0.658223 0.064625
vt 0.655504 0.059702
vt 0.651266 0.056006
vt 0.653571 0.080486
vt 0.678941 0.114848
vt 0.676009 0.121563
vt 0.671272 0.127520
vt 0.665140 0.132027
vt 0.655868 0.113569
vt 0.644216 0.126931
vt 0.648747 0.125379
vt 0.652474 0.122371
vt 0.654947 0.118269
vt 0.720352 0.008792
vt 0.758240 0.009189
vt 0.719884 0.053612
vt 0.730473 0.080079
vt 0.734874 0.075255
vt 0.729254 0.104236
vt 0.719121 0.126578
vt 0.721515 0.126603
vt 0.719032 0.135085
vt 0.717072 0.053583
vt 0.682465 0.008396
vt 0.706354 0.108145
vt 0.704444 0.074936
vt 0.709457 0.104029
vt 0.709935 0.134990
vt 0.702402 0.133905
vt 0.757220 0.106690
vt 0.735908 0.069727
vt 0.734990 0.064179
vt 0.732229 0.059280
vt 0.727959 0.055620
vt 0.722695 0.053641
vt 0.742481 0.131520
vt 0.733052 0.113141
vt 0.732270 0.108416
vt 0.753261 0.120963
vt 0.748575 0.126960
vt 0.756136 0.114223
vt 0.735683 0.134253
vt 0.728128 0.135180
vt 0.732171 0.117849
vt 0.729733 0.121972
vt 0.726032 0.125012
vt 0.704560 0.063861
vt 0.703525 0.069388
vt 0.681445 0.105898
vt 0.707422 0.059020
vt 0.711768 0.055451
vt 0.708742 0.079852
vt 0.685105 0.120250
vt 0.682372 0.113452
vt 0.695662 0.131030
vt 0.689665 0.126344
vt 0.705473 0.112853
vt 0.716726 0.126553
vt 0.712243 0.124868
vt 0.708606 0.121751
vt 0.706255 0.117578
vt 0.966596 0.065284
vt 0.966955 0.018314
vt 0.986407 0.018144
vt 0.878381 0.203073
vt 0.878348 0.211711
vt 0.856443 0.211694
vt 0.878503 0.171076
vt 0.856476 0.203056
vt 0.878662 0.129411
vt 0.878650 0.132578
vt 0.856745 0.132561
vt 0.879133 0.006194
vt 0.879118 0.009914
vt 0.857214 0.009896
vt 0.878821 0.087745
vt 0.878795 0.094564
vt 0.856891 0.094546
vt 0.964886 0.289031
vt 0.964958 0.279597
vt 0.984411 0.279427
vt 0.964800 0.300309
vt 0.984339 0.288861
vt 0.878319 0.219151
vt 0.878291 0.226590
vt 0.856386 0.226572
vt 0.963363 0.488364
vt 0.964287 0.367491
vt 0.983739 0.367321
vt 0.878263 0.234029
vt 0.856358 0.234012
vt 0.878234 0.241468
vt 0.856330 0.241451
vt 0.878206 0.248907
vt 0.856301 0.248890
vt 0.878192 0.252627
vt 0.856287 0.252609
vt 0.878553 0.157922
vt 0.878529 0.164257
vt 0.856624 0.164240
vt 0.964500 0.339539
vt 0.964572 0.330104
vt 0.984025 0.329934
vt 0.964428 0.348973
vt 0.983953 0.339369
vt 0.964359 0.358056
vt 0.983881 0.348803
vt 0.983812 0.357887
vt 0.856415 0.219133
vt 0.856598 0.171058
vt 0.964714 0.311586
vt 0.984253 0.300139
vt 0.964642 0.321021
vt 0.984166 0.311416
vt 0.984094 0.320851
vt 0.878577 0.151586
vt 0.856649 0.157904
vt 0.878602 0.145250
vt 0.856673 0.151568
vt 0.878626 0.138914
vt 0.856697 0.145232
vt 0.856721 0.138897
vt 0.966237 0.112253
vt 0.986049 0.065114
vt 0.879033 0.032232
vt 0.879005 0.039671
vt 0.857100 0.039653
vt 0.965313 0.233126
vt 0.985690 0.112083
vt 0.879062 0.024792
vt 0.857129 0.032214
vt 0.879090 0.017353
vt 0.857157 0.024775
vt 0.857185 0.017336
vt 0.878943 0.055748
vt 0.856917 0.087728
vt 0.878976 0.047110
vt 0.857039 0.055731
vt 0.857072 0.047092
vt 0.965241 0.242561
vt 0.984766 0.232957
vt 0.965172 0.251644
vt 0.984694 0.242391
vt 0.965100 0.261079
vt 0.984625 0.251474
vt 0.965028 0.270513
vt 0.984552 0.260909
vt 0.878771 0.100900
vt 0.856866 0.100882
vt 0.878674 0.126243
vt 0.856758 0.129393
vt 0.878698 0.119907
vt 0.856769 0.126226
vt 0.878723 0.113571
vt 0.856794 0.119890
vt 0.984480 0.270343
vt 0.878747 0.107236
vt 0.856842 0.107218
vt 0.856818 0.113554
vt 0.015920 0.310458
vt 0.756400 0.307849
vt 0.015975 0.325976
vt 0.015926 0.329003
vt 0.756525 0.326393
vt 0.015908 0.330417
vt 0.760378 0.300236
vt 0.757278 0.300816
vt 0.757896 0.300211
vt 0.760983 0.300853
vt 0.760978 0.301385
vt 0.757237 0.304960
vt 0.759103 0.306852
vt 0.762844 0.303277
vt 0.774484 0.307006
vt 0.793037 0.303579
vt 0.775474 0.308016
vt 0.792975 0.309803
vt 0.775457 0.309628
vt 0.776447 0.310638
vt 0.791965 0.310793
vt 0.015892 0.309044
vt 0.756418 0.306435
vt 0.015957 0.327390
vt 0.756455 0.323367
vt 0.756483 0.324781
vt 0.015929 0.348455
vt 0.756658 0.345845
vt 0.015850 0.352599
vt 0.995253 0.515173
vt 0.505491 0.515759
vt 0.015729 0.515173
vt 0.015963 0.345798
vt 0.756767 0.349988
vt 0.015839 0.353464
vt 0.756784 0.350853
vt 0.015848 0.355946
vt 0.756739 0.357388
vt 0.016037 0.390193
vt 0.015931 0.359999
vt 0.796958 0.310654
vt 0.794475 0.310670
vt 0.793860 0.310063
vt 0.797565 0.310039
vt 0.797562 0.309507
vt 0.793834 0.305918
vt 0.795707 0.304033
vt 0.799435 0.307622
vt 0.811088 0.303935
vt 0.829628 0.307430
vt 0.812081 0.302929
vt 0.829589 0.301204
vt 0.812071 0.301316
vt 0.813065 0.300310
vt 0.828582 0.300211
vt 0.015729 0.302821
vt 0.756607 0.343188
vt 0.756793 0.353335
vt 0.015865 0.356810
vt 0.015879 0.357342
vt 0.756772 0.354731
vt 0.010943 0.288562
vt 0.883301 0.433744
vt 0.899583 0.471167
vt 0.903746 0.465431
vt 0.893341 0.445240
vt 0.874127 0.444553
vt 0.893013 0.478562
vt 0.982037 0.542272
vt 0.894653 0.448559
vt 0.026414 0.390737
vt 0.857228 0.006177
vt 0.982816 0.488194
vt 0.756552 0.327807
vt 0.756845 0.387583
vt 0.756537 0.300211
vt 0.756782 0.354199
s 1
usemtl White_board
f 2/1/1 3/2/2 20/3/3
f 20/3/3 4/4/3 2/1/1
f 5/5/4 4/4/3 20/3/3
f 5/5/4 13/6/5 4/4/3
f 6/7/6 13/6/5 5/5/4
f 6/7/6 14/8/7 13/6/5
f 21/9/8 14/8/7 6/7/6
f 21/9/8 7/10/9 14/8/7
f 8/11/10 7/10/9 21/9/8
f 8/11/10 15/12/11 7/10/9
f 9/13/12 15/12/11 8/11/10
f 15/12/11 9/13/12 10/14/13
f 10/14/13 9/13/12 22/15/14
f 10/14/13 22/15/14 16/16/15
f 16/16/15 22/15/14 23/17/16
f 16/16/15 23/17/16 17/18/17
f 17/18/17 23/17/16 24/19/18
f 17/18/17 24/19/18 11/20/19
f 11/20/19 24/19/18 12/21/20
f 11/20/19 12/21/20 18/22/20
f 1/23/21 18/22/20 12/21/20
f 18/22/20 1/23/21 19/24/2
f 3/25/22 2/26/22 27/27/22
f 13/28/5 31/29/23 4/30/24
f 17/31/17 41/32/25 16/33/15
f 9/34/26 38/35/26 22/36/14
f 12/37/27 24/38/18 46/39/27
f 13/28/5 14/40/7 31/29/23
f 7/41/9 15/42/28 35/43/29
f 18/44/30 19/45/31 47/46/30
f 24/38/18 42/47/32 44/48/33
f 12/37/27 46/39/27 1/49/34
f 26/50/35 28/51/36 27/52/37
f 28/51/36 26/50/35 29/53/36
f 30/54/38 28/51/36 29/53/36
f 30/54/38 29/53/36 31/55/23
f 32/56/39 30/54/38 31/55/23
f 32/56/39 31/55/23 33/57/40
f 34/58/41 32/56/39 33/57/40
f 34/58/41 33/57/40 35/59/29
f 36/60/42 34/58/41 35/59/29
f 36/60/42 35/59/29 37/61/43
f 38/62/44 36/60/42 37/61/43
f 37/61/43 39/63/45 38/62/44
f 39/63/45 40/64/46 38/62/44
f 39/63/45 41/65/25 40/64/46
f 41/65/25 42/66/32 40/64/46
f 41/65/25 43/67/47 42/66/32
f 43/67/47 44/68/33 42/66/32
f 43/67/47 45/69/48 44/68/33
f 45/69/48 46/70/49 44/68/33
f 45/69/48 47/71/49 46/70/49
f 48/72/50 46/70/49 47/71/49
f 47/71/49 25/73/37 48/72/50
f 4/30/24 29/74/24 2/75/31
f 7/41/9 35/43/29 14/40/7
f 30/76/38 32/77/39 5/78/4
f 34/79/41 36/80/51 21/81/8
f 23/82/16 22/36/14 42/47/32
f 19/83/52 1/84/52 25/85/52
f 10/86/53 39/87/53 15/42/28
f 16/33/15 41/32/25 10/86/53
f 17/31/17 11/88/19 43/89/47
f 18/44/30 47/46/30 11/88/19
f 20/90/54 27/91/34 28/92/54
f 5/78/4 20/90/54 30/76/38
f 21/81/8 6/93/6 34/79/41
f 9/34/26 8/94/51 38/35/26
f 62/95/55 103/96/56 49/97/57
f 103/96/56 62/95/55 50/98/58
f 62/95/55 59/99/59 50/98/58
f 51/100/60 92/101/61 59/99/59
f 92/101/61 51/100/60 52/102/62
f 53/103/63 52/102/62 51/100/60
f 52/102/62 53/103/63 54/104/64
f 53/103/63 55/105/65 54/104/64
f 53/103/63 56/106/66 55/105/65
f 56/106/66 53/103/63 57/107/67
f 58/108/68 57/107/67 53/103/63
f 53/103/63 51/109/60 58/108/68
f 59/110/59 58/108/68 51/109/60
f 56/106/66 57/107/67 60/111/69
f 58/108/68 59/110/59 61/112/70
f 62/113/55 61/112/70 59/110/59
f 63/114/71 58/108/68 61/112/70
f 60/111/69 57/107/67 63/114/71
f 57/107/67 58/108/68 63/114/71
f 61/112/70 62/113/55 64/115/72
f 65/116/73 61/112/70 64/115/72
f 61/112/70 65/116/73 63/114/71
f 66/117/74 64/115/72 62/113/55
f 65/116/73 64/115/72 66/117/74
f 62/113/55 49/118/57 66/117/74
f 81/119/75 66/117/74 49/118/57
f 67/120/76 65/116/73 66/117/74
f 66/117/74 81/119/75 67/120/76
f 80/121/77 67/120/76 81/119/75
f 67/120/76 80/121/77 68/122/78
f 68/122/78 65/116/73 67/120/76
f 69/123/79 63/114/71 65/116/73
f 69/123/79 65/116/73 68/122/78
f 69/123/79 60/111/69 63/114/71
f 69/123/79 68/122/78 70/124/80
f 70/124/80 68/122/78 80/121/77
f 80/121/77 71/125/81 70/124/80
f 72/126/82 70/124/80 71/125/81
f 70/124/80 72/126/82 73/127/83
f 73/127/83 60/111/69 69/123/79
f 70/124/80 73/127/83 69/123/79
f 72/126/82 74/128/84 73/127/83
f 60/111/69 73/127/83 74/128/84
f 74/128/84 72/126/82 77/129/85
f 75/130/86 74/128/84 77/129/85
f 60/111/69 75/130/86 56/106/66
f 75/130/86 55/105/65 56/106/66
f 75/130/86 60/111/69 74/128/84
f 55/105/65 75/130/86 76/131/87
f 77/129/85 76/131/87 75/130/86
f 76/132/87 85/133/88 55/105/65
f 76/132/87 86/134/89 85/133/88
f 77/135/85 86/134/89 76/132/87
f 55/105/65 78/136/90 54/104/64
f 55/105/65 85/133/88 78/136/90
f 77/135/85 79/137/91 86/134/89
f 79/137/91 77/135/85 72/138/82
f 72/138/82 96/139/92 79/137/91
f 71/140/81 96/139/92 72/138/82
f 71/140/81 97/141/93 96/139/92
f 80/142/77 97/141/93 71/140/81
f 80/142/77 81/143/75 97/141/93
f 81/143/75 82/144/94 97/141/93
f 49/145/57 82/144/94 81/143/75
f 82/144/94 49/145/57 103/146/56
f 83/147/95 54/104/64 78/136/90
f 78/136/90 84/148/96 83/147/95
f 85/149/88 84/148/96 78/136/90
f 85/149/88 86/150/89 84/148/96
f 54/104/64 83/147/95 87/151/97
f 86/150/89 88/152/98 84/148/96
f 89/153/99 84/148/96 88/152/98
f 89/153/99 87/151/97 83/147/95
f 84/148/96 89/153/99 83/147/95
f 90/154/100 89/153/99 88/152/98
f 86/150/89 90/154/100 88/152/98
f 90/154/100 86/150/89 79/155/91
f 54/104/64 87/151/97 91/156/101
f 52/157/62 54/104/64 91/156/101
f 91/156/101 92/158/61 52/157/62
f 93/159/102 91/156/101 87/151/97
f 87/151/97 89/153/99 93/159/102
f 94/160/103 93/159/102 89/153/99
f 89/153/99 90/154/100 94/160/103
f 79/155/91 95/161/104 90/154/100
f 94/160/103 90/154/100 95/161/104
f 96/162/92 95/161/104 79/155/91
f 96/162/92 97/163/93 95/161/104
f 97/163/93 98/164/105 95/161/104
f 98/164/105 94/160/103 95/161/104
f 98/164/105 99/165/106 94/160/103
f 93/159/102 94/160/103 99/165/106
f 99/165/106 98/164/105 100/166/107
f 97/163/93 100/166/107 98/164/105
f 100/166/107 97/163/93 82/167/94
f 91/156/101 93/159/102 101/168/108
f 92/158/61 91/156/101 101/168/108
f 93/159/102 99/165/106 101/168/108
f 99/165/106 100/166/107 102/169/109
f 82/167/94 102/169/109 100/166/107
f 102/169/109 82/167/94 103/170/56
f 103/170/56 50/171/58 102/169/109
f 104/172/110 101/168/108 99/165/106
f 102/169/109 104/172/110 99/165/106
f 101/168/108 104/172/110 92/158/61
f 50/171/58 104/172/110 102/169/109
f 50/171/58 92/158/61 104/172/110
f 139/173/111 105/174/112 138/175/113
f 105/174/112 139/173/111 152/176/114
f 152/176/114 106/177/115 105/174/112
f 152/176/114 148/178/116 106/177/115
f 148/178/116 114/179/117 106/177/115
f 114/179/117 148/178/116 107/180/118
f 107/180/118 108/181/119 114/179/117
f 108/181/119 107/180/118 109/182/120
f 109/182/120 110/183/121 108/181/119
f 108/181/119 110/183/121 111/184/122
f 108/181/119 111/184/122 112/185/123
f 108/181/119 112/185/123 113/186/124
f 114/187/117 108/181/119 113/186/124
f 114/187/117 113/186/124 106/188/115
f 112/185/123 111/184/122 115/189/125
f 106/188/115 113/186/124 116/190/126
f 113/186/124 117/191/127 116/190/126
f 115/189/125 117/191/127 112/185/123
f 117/191/127 113/186/124 112/185/123
f 105/192/112 106/188/115 116/190/126
f 110/183/121 118/193/128 111/184/122
f 118/193/128 115/189/125 111/184/122
f 105/192/112 116/190/126 119/194/129
f 118/193/128 110/183/121 131/195/130
f 131/195/130 120/196/131 118/193/128
f 115/189/125 118/193/128 121/197/132
f 120/196/131 121/197/132 118/193/128
f 135/198/133 121/197/132 120/196/131
f 121/197/132 135/198/133 122/199/134
f 122/199/134 115/189/125 121/197/132
f 115/189/125 122/199/134 123/200/135
f 117/191/127 115/189/125 123/200/135
f 123/200/135 122/199/134 124/201/136
f 135/198/133 124/201/136 122/199/134
f 124/201/136 135/198/133 136/202/137
f 136/202/137 125/203/138 124/201/136
f 125/203/138 126/204/139 124/201/136
f 126/204/139 123/200/135 124/201/136
f 127/205/140 117/191/127 123/200/135
f 126/204/139 127/205/140 123/200/135
f 127/205/140 116/190/126 117/191/127
f 116/190/126 127/205/140 119/194/129
f 127/205/140 126/204/139 128/206/141
f 125/203/138 128/206/141 126/204/139
f 125/203/138 129/207/142 128/206/141
f 130/208/143 119/194/129 127/205/140
f 127/205/140 128/206/141 130/208/143
f 129/207/142 130/208/143 128/206/141
f 105/192/112 119/194/129 130/208/143
f 138/209/113 105/192/112 130/208/143
f 138/209/113 130/208/143 129/207/142
f 110/183/121 142/210/144 131/211/130
f 132/212/145 131/211/130 142/210/144
f 131/211/130 132/212/145 120/213/131
f 109/182/120 133/214/146 110/183/121
f 142/210/144 110/183/121 133/214/146
f 134/215/147 120/213/131 132/212/145
f 120/213/131 134/215/147 135/216/133
f 135/216/133 134/215/147 160/217/148
f 160/217/148 136/218/137 135/216/133
f 136/218/137 160/217/148 137/219/149
f 137/219/149 125/220/138 136/218/137
f 137/219/149 129/221/142 125/220/138
f 137/219/149 156/222/150 129/221/142
f 156/222/150 138/223/113 129/221/142
f 138/223/113 156/222/150 139/224/111
f 109/182/120 140/225/151 133/214/146
f 141/226/152 133/214/146 140/225/151
f 133/214/146 141/226/152 142/227/144
f 132/228/145 142/227/144 141/226/152
f 140/225/151 109/182/120 143/229/153
f 141/226/152 144/230/154 132/228/145
f 141/226/152 145/231/155 144/230/154
f 143/229/153 145/231/155 140/225/151
f 145/231/155 141/226/152 140/225/151
f 146/232/156 144/230/154 145/231/155
f 146/232/156 132/228/145 144/230/154
f 132/228/145 146/232/156 134/233/147
f 147/234/157 143/229/153 109/182/120
f 109/182/120 107/235/118 147/234/157
f 148/236/116 147/234/157 107/235/118
f 145/231/155 143/229/153 149/237/158
f 143/229/153 147/234/157 149/237/158
f 149/237/158 147/234/157 150/238/159
f 147/234/157 148/236/116 150/238/159
f 151/239/160 150/238/159 148/236/116
f 151/239/160 148/236/116 152/240/114
f 153/241/161 150/238/159 151/239/160
f 153/241/161 149/237/158 150/238/159
f 154/242/162 149/237/158 153/241/161
f 146/232/156 145/231/155 154/242/162
f 149/237/158 154/242/162 145/231/155
f 153/241/161 151/239/160 155/243/163
f 155/243/163 151/239/160 152/240/114
f 152/240/114 139/244/111 155/243/163
f 156/245/150 155/243/163 139/244/111
f 157/246/164 153/241/161 155/243/163
f 155/243/163 156/245/150 157/246/164
f 137/247/149 157/246/164 156/245/150
f 157/246/164 137/247/149 158/248/165
f 153/241/161 158/248/165 154/242/162
f 158/248/165 153/241/161 157/246/164
f 159/249/166 158/248/165 137/247/149
f 154/242/162 158/248/165 159/249/166
f 159/249/166 146/232/156 154/242/162
f 159/249/166 134/233/147 146/232/156
f 134/233/147 159/249/166 160/250/148
f 137/247/149 160/250/148 159/249/166
f 161/95/167 163/97/168 162/96/169
f 162/96/169 164/98/170 161/95/167
f 164/98/170 166/101/171 165/99/172
f 167/100/173 165/99/172 166/101/171
f 166/101/171 168/102/174 167/100/173
f 169/103/175 167/100/173 168/102/174
f 168/102/174 170/104/176 169/103/175
f 169/103/175 170/104/176 171/105/177
f 169/103/175 171/105/177 172/106/178
f 172/106/178 173/107/179 169/103/175
f 174/108/180 169/103/175 173/107/179
f 169/103/175 174/108/180 167/109/173
f 165/110/172 167/109/173 174/108/180
f 172/106/178 175/111/181 173/107/179
f 174/108/180 176/112/182 165/110/172
f 161/113/167 165/110/172 176/112/182
f 177/114/183 176/112/182 174/108/180
f 175/111/181 177/114/183 173/107/179
f 173/107/179 177/114/183 174/108/180
f 176/112/182 178/115/184 161/113/167
f 179/116/185 178/115/184 176/112/182
f 176/112/182 177/114/183 179/116/185
f 180/117/186 161/113/167 178/115/184
f 179/116/185 180/117/186 178/115/184
f 161/113/167 180/117/186 163/118/168
f 181/119/187 163/118/168 180/117/186
f 182/120/188 180/117/186 179/116/185
f 180/117/186 182/120/188 181/119/187
f 183/121/189 181/119/187 182/120/188
f 182/120/188 184/122/190 183/121/189
f 184/122/190 182/120/188 179/116/185
f 185/123/191 179/116/185 177/114/183
f 185/123/191 184/122/190 179/116/185
f 185/123/191 177/114/183 175/111/181
f 185/123/191 186/124/192 184/122/190
f 186/124/192 183/121/189 184/122/190
f 183/121/189 186/124/192 187/125/193
f 188/126/194 187/125/193 186/124/192
f 186/124/192 189/127/195 188/126/194
f 189/127/195 185/123/191 175/111/181
f 186/124/192 185/123/191 189/127/195
f 188/126/194 189/127/195 190/128/196
f 175/111/181 190/128/196 189/127/195
f 190/128/196 191/129/197 188/126/194
f 192/130/198 191/129/197 190/128/196
f 175/111/181 172/106/178 192/130/198
f 192/130/198 172/106/178 171/105/177
f 192/130/198 190/128/196 175/111/181
f 171/105/177 193/131/199 192/130/198
f 191/129/197 192/130/198 193/131/199
f 193/132/199 171/105/177 194/133/200
f 193/132/199 194/133/200 195/134/201
f 191/135/197 193/132/199 195/134/201
f 171/105/177 170/104/176 196/136/202
f 171/105/177 196/136/202 194/133/200
f 191/135/197 195/134/201 197/137/203
f 197/137/203 188/138/194 191/135/197
f 188/138/194 197/137/203 198/139/204
f 187/140/193 188/138/194 198/139/204
f 187/140/193 198/139/204 199/141/205
f 183/142/189 187/140/193 199/141/205
f 183/142/189 199/141/205 181/143/187
f 181/143/187 199/141/205 200/144/206
f 163/145/168 181/143/187 200/144/206
f 200/144/206 162/146/169 163/145/168
f 201/147/207 196/136/202 170/104/176
f 196/136/202 201/147/207 202/148/208
f 194/149/200 196/136/202 202/148/208
f 194/149/200 202/148/208 195/150/201
f 170/104/176 203/151/209 201/147/207
f 195/150/201 202/148/208 204/152/210
f 205/153/211 204/152/210 202/148/208
f 205/153/211 201/147/207 203/151/209
f 202/148/208 201/147/207 205/153/211
f 206/154/212 204/152/210 205/153/211
f 195/150/201 204/152/210 206/154/212
f 206/154/212 197/155/203 195/150/201
f 170/104/176 207/156/213 203/151/209
f 168/157/174 207/156/213 170/104/176
f 207/156/213 168/157/174 166/158/171
f 208/159/214 203/151/209 207/156/213
f 203/151/209 208/159/214 205/153/211
f 209/160/215 205/153/211 208/159/214
f 205/153/211 209/160/215 206/154/212
f 197/155/203 206/154/212 210/161/216
f 209/160/215 210/161/216 206/154/212
f 198/162/204 197/155/203 210/161/216
f 198/162/204 210/161/216 199/163/205
f 199/163/205 210/161/216 211/164/217
f 211/164/217 210/161/216 209/160/215
f 211/164/217 209/160/215 212/165/218
f 208/159/214 212/165/218 209/160/215
f 212/165/218 213/166/219 211/164/217
f 199/163/205 211/164/217 213/166/219
f 213/166/219 200/167/206 199/163/205
f 207/156/213 214/168/220 208/159/214
f 166/158/171 214/168/220 207/156/213
f 208/159/214 214/168/220 212/165/218
f 212/165/218 215/169/221 213/166/219
f 200/167/206 213/166/219 215/169/221
f 215/169/221 162/170/169 200/167/206
f 162/170/169 215/169/221 164/171/170
f 216/172/222 212/165/218 214/168/220
f 215/169/221 212/165/218 216/172/222
f 214/168/220 166/158/171 216/172/222
f 164/171/170 215/169/221 216/172/222
f 164/171/170 216/172/222 166/158/171
f 217/173/223 219/175/224 218/174/225
f 218/174/225 220/176/226 217/173/223
f 220/176/226 218/174/225 221/177/227
f 220/176/226 221/177/227 222/178/228
f 222/178/228 221/177/227 223/179/229
f 223/179/229 224/180/230 222/178/228
f 224/180/230 223/179/229 225/181/231
f 225/181/231 226/182/232 224/180/230
f 226/182/232 225/181/231 227/183/233
f 225/181/231 228/184/234 227/183/233
f 225/181/231 229/185/235 228/184/234
f 225/181/231 230/186/236 229/185/235
f 223/187/229 230/186/236 225/181/231
f 223/187/229 221/188/227 230/186/236
f 229/185/235 231/189/237 228/184/234
f 221/188/227 232/190/238 230/186/236
f 230/186/236 232/190/238 233/191/239
f 231/189/237 229/185/235 233/191/239
f 233/191/239 229/185/235 230/186/236
f 218/192/225 232/190/238 221/188/227
f 227/183/233 228/184/234 234/193/240
f 234/193/240 228/184/234 231/189/237
f 218/192/225 235/194/241 232/190/238
f 234/193/240 236/195/242 227/183/233
f 236/195/242 234/193/240 237/196/243
f 231/189/237 238/197/244 234/193/240
f 237/196/243 234/193/240 238/197/244
f 239/198/245 237/196/243 238/197/244
f 238/197/244 240/199/246 239/198/245
f 240/199/246 238/197/244 231/189/237
f 231/189/237 241/200/247 240/199/246
f 233/191/239 241/200/247 231/189/237
f 241/200/247 242/201/248 240/199/246
f 239/198/245 240/199/246 242/201/248
f 242/201/248 243/202/249 239/198/245
f 243/202/249 242/201/248 244/203/250
f 244/203/250 242/201/248 245/204/251
f 245/204/251 242/201/248 241/200/247
f 246/205/252 241/200/247 233/191/239
f 245/204/251 241/200/247 246/205/252
f 246/205/252 233/191/239 232/190/238
f 232/190/238 235/194/241 246/205/252
f 246/205/252 247/206/253 245/204/251
f 244/203/250 245/204/251 247/206/253
f 244/203/250 247/206/253 248/207/254
f 249/208/255 246/205/252 235/194/241
f 246/205/252 249/208/255 247/206/253
f 248/207/254 247/206/253 249/208/255
f 218/192/225 249/208/255 235/194/241
f 219/209/224 249/208/255 218/192/225
f 219/209/224 248/207/254 249/208/255
f 227/183/233 236/211/242 250/210/256
f 251/212/257 250/210/256 236/211/242
f 236/211/242 237/213/243 251/212/257
f 226/182/232 227/183/233 252/214/258
f 250/210/256 252/214/258 227/183/233
f 253/215/259 251/212/257 237/213/243
f 237/213/243 239/216/245 253/215/259
f 239/216/245 254/217/260 253/215/259
f 254/217/260 239/216/245 243/218/249
f 243/218/249 255/219/261 254/217/260
f 255/219/261 243/218/249 244/220/250
f 255/219/261 244/220/250 248/221/254
f 255/219/261 248/221/254 256/222/262
f 256/222/262 248/221/254 219/223/224
f 219/223/224 217/224/223 256/222/262
f 226/182/232 252/214/258 257/225/263
f 258/226/264 257/225/263 252/214/258
f 252/214/258 250/227/256 258/226/264
f 251/228/257 258/226/264 250/227/256
f 257/225/263 259/229/265 226/182/232
f 258/226/264 251/228/257 260/230/266
f 258/226/264 260/230/266 261/231/267
f 259/229/265 257/225/263 261/231/267
f 261/231/267 257/225/263 258/226/264
f 262/232/268 261/231/267 260/230/266
f 262/232/268 260/230/266 251/228/257
f 251/228/257 253/233/259 262/232/268
f 263/234/269 226/182/232 259/229/265
f 226/182/232 263/234/269 224/235/230
f 222/236/228 224/235/230 263/234/269
f 261/231/267 264/237/270 259/229/265
f 259/229/265 264/237/270 263/234/269
f 264/237/270 265/238/271 263/234/269
f 263/234/269 265/238/271 222/236/228
f 266/239/272 222/236/228 265/238/271
f 266/239/272 220/240/226 222/236/228
f 267/241/273 266/239/272 265/238/271
f 267/241/273 265/238/271 264/237/270
f 268/242/274 267/241/273 264/237/270
f 262/232/268 268/242/274 261/231/267
f 264/237/270 261/231/267 268/242/274
f 267/241/273 269/243/275 266/239/272
f 269/243/275 220/240/226 266/239/272
f 220/240/226 269/243/275 217/244/223
f 256/245/262 217/244/223 269/243/275
f 270/246/276 269/243/275 267/241/273
f 269/243/275 270/246/276 256/245/262
f 255/247/261 256/245/262 270/246/276
f 270/246/276 271/248/277 255/247/261
f 267/241/273 268/242/274 271/248/277
f 271/248/277 270/246/276 267/241/273
f 272/249/278 255/247/261 271/248/277
f 268/242/274 272/249/278 271/248/277
f 272/249/278 268/242/274 262/232/268
f 272/249/278 262/232/268 253/233/259
f 253/233/259 254/250/260 272/249/278
f 255/247/261 272/249/278 254/250/260
f 296/251/52 294/252/52 295/253/52
f 281/254/52 288/255/52 289/256/52
f 313/257/52 280/258/52 320/259/52
f 296/251/52 303/260/52 297/261/52
f 304/262/52 311/263/52 305/264/52
f 313/257/52 315/265/52 314/266/52
f 293/267/52 287/268/52 286/269/52
f 293/267/52 286/269/52 294/252/52
f 292/270/52 293/267/52 294/252/52
f 291/271/52 292/270/52 294/252/52
f 290/272/52 291/271/52 294/252/52
f 296/251/52 290/272/52 294/252/52
f 282/273/52 276/274/52 275/275/52
f 275/275/52 283/276/52 284/277/52
f 282/273/52 275/275/52 284/277/52
f 284/277/52 285/278/52 286/269/52
f 286/269/52 287/268/52 288/255/52
f 284/277/52 286/269/52 288/255/52
f 282/273/52 284/277/52 288/255/52
f 281/254/52 282/273/52 288/255/52
f 313/257/52 273/279/52 274/280/52
f 274/280/52 275/275/52 276/274/52
f 274/280/52 276/274/52 277/281/52
f 274/280/52 277/281/52 278/282/52
f 313/257/52 274/280/52 278/282/52
f 313/257/52 278/282/52 279/283/52
f 313/257/52 279/283/52 280/258/52
f 296/251/52 295/253/52 303/260/52
f 302/284/52 301/285/52 300/286/52
f 303/260/52 302/284/52 300/286/52
f 303/260/52 300/286/52 299/287/52
f 303/260/52 299/287/52 298/288/52
f 303/260/52 298/288/52 297/261/52
f 304/262/52 312/289/52 311/263/52
f 311/263/52 301/285/52 302/284/52
f 302/284/52 310/290/52 309/291/52
f 311/263/52 302/284/52 309/291/52
f 309/291/52 308/292/52 307/293/52
f 307/293/52 306/294/52 305/264/52
f 309/291/52 307/293/52 305/264/52
f 311/263/52 309/291/52 305/264/52
f 313/257/52 320/259/52 319/295/52
f 313/257/52 319/295/52 318/296/52
f 313/257/52 318/296/52 317/297/52
f 306/294/52 307/293/52 315/265/52
f 316/298/52 306/294/52 315/265/52
f 317/297/52 316/298/52 315/265/52
f 313/257/52 317/297/52 315/265/52
f 343/299/22 342/300/22 344/301/22
f 337/302/22 336/303/22 329/304/22
f 368/305/22 328/306/22 361/307/22
f 345/308/22 351/309/22 344/301/22
f 353/310/22 359/311/22 352/312/22
f 362/313/22 363/314/22 361/307/22
f 334/315/22 335/316/22 341/317/22
f 342/300/22 334/315/22 341/317/22
f 342/300/22 341/317/22 340/318/22
f 342/300/22 340/318/22 339/319/22
f 342/300/22 339/319/22 338/320/22
f 342/300/22 338/320/22 344/301/22
f 323/321/22 324/322/22 330/323/22
f 332/324/22 331/325/22 323/321/22
f 332/324/22 323/321/22 330/323/22
f 334/315/22 333/326/22 332/324/22
f 336/303/22 335/316/22 334/315/22
f 336/303/22 334/315/22 332/324/22
f 336/303/22 332/324/22 330/323/22
f 336/303/22 330/323/22 329/304/22
f 322/327/22 321/328/22 361/307/22
f 324/322/22 323/321/22 322/327/22
f 325/329/22 324/322/22 322/327/22
f 326/330/22 325/329/22 322/327/22
f 326/330/22 322/327/22 361/307/22
f 327/331/22 326/330/22 361/307/22
f 328/306/22 327/331/22 361/307/22
f 351/309/22 343/299/22 344/301/22
f 348/332/22 349/333/22 350/334/22
f 348/332/22 350/334/22 351/309/22
f 347/335/22 348/332/22 351/309/22
f 346/336/22 347/335/22 351/309/22
f 345/308/22 346/336/22 351/309/22
f 359/311/22 360/337/22 352/312/22
f 350/334/22 349/333/22 359/311/22
f 357/338/22 358/339/22 350/334/22
f 357/338/22 350/334/22 359/311/22
f 355/340/22 356/341/22 357/338/22
f 353/310/22 354/342/22 355/340/22
f 353/310/22 355/340/22 357/338/22
f 353/310/22 357/338/22 359/311/22
f 367/343/22 368/305/22 361/307/22
f 366/344/22 367/343/22 361/307/22
f 365/345/22 366/344/22 361/307/22
f 363/314/22 355/340/22 354/342/22
f 363/314/22 354/342/22 364/346/22
f 363/314/22 364/346/22 365/345/22
f 363/314/22 365/345/22 361/307/22
f 295/347/31 294/348/31 342/349/31
f 289/350/279 288/351/280 336/352/280
f 281/353/281 289/350/279 337/354/279
f 320/355/31 280/356/282 328/357/282
f 296/358/34 297/359/283 345/360/284
f 304/361/285 305/362/286 353/363/286
f 314/364/287 315/365/288 363/366/288
f 313/367/34 314/364/287 362/368/287
f 287/369/289 293/370/290 341/371/290
f 294/372/291 286/373/292 334/374/293
f 293/370/290 292/375/294 340/376/294
f 292/375/294 291/377/295 339/378/295
f 291/377/295 290/379/296 338/380/297
f 290/379/296 296/381/34 344/382/34
f 276/383/289 282/384/298 330/385/298
f 283/386/299 275/387/300 323/388/300
f 284/389/301 283/386/299 331/390/299
f 285/391/302 284/389/301 332/392/301
f 286/373/292 285/391/302 333/393/302
f 288/351/280 287/369/289 335/394/289
f 282/384/298 281/353/281 329/395/303
f 273/396/304 313/367/34 361/397/34
f 274/398/305 273/396/304 321/399/304
f 275/387/300 274/398/305 322/400/305
f 277/401/306 276/383/289 324/402/289
f 278/403/307 277/401/306 325/404/306
f 279/405/308 278/403/307 326/406/307
f 280/356/282 279/405/308 327/407/308
f 303/408/31 295/347/31 343/409/31
f 300/410/309 301/411/291 349/412/291
f 302/413/310 303/408/289 351/414/289
f 299/415/311 300/410/309 348/416/309
f 298/417/312 299/415/311 347/418/311
f 297/359/283 298/417/312 346/419/312
f 312/420/313 304/361/285 352/421/285
f 311/422/314 312/420/313 360/423/313
f 301/411/291 311/422/314 359/424/314
f 310/425/315 302/413/310 350/426/316
f 309/427/317 310/425/315 358/428/318
f 308/429/319 309/427/317 357/430/317
f 307/431/320 308/429/319 356/432/319
f 305/362/286 306/433/291 354/434/291
f 319/435/321 320/355/31 368/436/31
f 318/437/322 319/435/321 367/438/321
f 317/439/323 318/437/322 366/440/322
f 315/365/288 307/431/320 355/441/320
f 306/433/291 316/442/324 364/443/324
f 316/442/324 317/439/323 365/444/323
f 392/251/52 390/252/52 391/253/52
f 377/254/52 384/255/52 385/256/52
f 409/257/52 376/258/52 416/259/52
f 392/251/52 399/260/52 393/261/52
f 400/262/52 407/263/52 401/264/52
f 409/257/52 411/265/52 410/266/52
f 389/267/52 383/268/52 382/269/52
f 389/267/52 382/269/52 390/252/52
f 388/270/52 389/267/52 390/252/52
f 387/271/52 388/270/52 390/252/52
f 386/272/52 387/271/52 390/252/52
f 392/251/52 386/272/52 390/252/52
f 378/273/52 372/274/52 371/275/52
f 371/275/52 379/276/52 380/277/52
f 378/273/52 371/275/52 380/277/52
f 380/277/52 381/278/52 382/269/52
f 382/269/52 383/268/52 384/255/52
f 380/277/52 382/269/52 384/255/52
f 378/273/52 380/277/52 384/255/52
f 377/254/52 378/273/52 384/255/52
f 409/257/52 369/279/52 370/280/52
f 370/280/52 371/275/52 372/274/52
f 370/280/52 372/274/52 373/281/52
f 370/280/52 373/281/52 374/282/52
f 409/257/52 370/280/52 374/282/52
f 409/257/52 374/282/52 375/283/52
f 409/257/52 375/283/52 376/258/52
f 392/251/52 391/253/52 399/260/52
f 398/284/52 397/285/52 396/286/52
f 399/260/52 398/284/52 396/286/52
f 399/260/52 396/286/52 395/287/52
f 399/260/52 395/287/52 394/288/52
f 399/260/52 394/288/52 393/261/52
f 400/262/52 408/289/52 407/263/52
f 407/263/52 397/285/52 398/284/52
f 398/284/52 406/290/52 405/291/52
f 407/263/52 398/284/52 405/291/52
f 405/291/52 404/292/52 403/293/52
f 403/293/52 402/294/52 401/264/52
f 405/291/52 403/293/52 401/264/52
f 407/263/52 405/291/52 401/264/52
f 409/257/52 416/259/52 415/295/52
f 409/257/52 415/295/52 414/296/52
f 409/257/52 414/296/52 413/297/52
f 402/294/52 403/293/52 411/265/52
f 412/298/52 402/294/52 411/265/52
f 413/297/52 412/298/52 411/265/52
f 409/257/52 413/297/52 411/265/52
f 439/299/22 438/300/22 440/301/22
f 433/302/22 432/303/22 425/304/22
f 464/305/22 424/306/22 457/307/22
f 441/308/22 447/309/22 440/301/22
f 449/310/22 455/311/22 448/312/22
f 458/313/22 459/314/22 457/307/22
f 430/315/22 431/316/22 437/317/22
f 438/300/22 430/315/22 437/317/22
f 438/300/22 437/317/22 436/318/22
f 438/300/22 436/318/22 435/319/22
f 438/300/22 435/319/22 434/320/22
f 438/300/22 434/320/22 440/301/22
f 419/321/22 420/322/22 426/323/22
f 428/324/22 427/325/22 419/321/22
f 428/324/22 419/321/22 426/323/22
f 430/315/22 429/326/22 428/324/22
f 432/303/22 431/316/22 430/315/22
f 432/303/22 430/315/22 428/324/22
f 432/303/22 428/324/22 426/323/22
f 432/303/22 426/323/22 425/304/22
f 418/327/22 417/328/22 457/307/22
f 420/322/22 419/321/22 418/327/22
f 421/329/22 420/322/22 418/327/22
f 422/330/22 421/329/22 418/327/22
f 422/330/22 418/327/22 457/307/22
f 423/331/22 422/330/22 457/307/22
f 424/306/22 423/331/22 457/307/22
f 447/309/22 439/299/22 440/301/22
f 444/332/22 445/333/22 446/334/22
f 444/332/22 446/334/22 447/309/22
f 443/335/22 444/332/22 447/309/22
f 442/336/22 443/335/22 447/309/22
f 441/308/22 442/336/22 447/309/22
f 455/311/22 456/337/22 448/312/22
f 446/334/22 445/333/22 455/311/22
f 453/338/22 454/339/22 446/334/22
f 453/338/22 446/334/22 455/311/22
f 451/340/22 452/341/22 453/338/22
f 449/310/22 450/342/22 451/340/22
f 449/310/22 451/340/22 453/338/22
f 449/310/22 453/338/22 455/311/22
f 463/343/22 464/305/22 457/307/22
f 462/344/22 463/343/22 457/307/22
f 461/345/22 462/344/22 457/307/22
f 459/314/22 451/340/22 450/342/22
f 459/314/22 450/342/22 460/346/22
f 459/314/22 460/346/22 461/345/22
f 459/314/22 461/345/22 457/307/22
f 391/347/31 390/348/31 438/349/31
f 385/350/279 384/351/280 432/352/280
f 377/353/281 385/350/279 433/354/279
f 416/355/31 376/356/282 424/357/282
f 392/358/34 393/359/283 441/360/284
f 400/361/285 401/362/286 449/363/286
f 410/364/287 411/365/288 459/366/288
f 409/367/34 410/364/287 458/368/287
f 383/369/289 389/370/290 437/371/290
f 390/372/291 382/373/292 430/374/293
f 389/370/290 388/375/294 436/376/294
f 388/375/294 387/377/295 435/378/295
f 387/377/295 386/379/296 434/380/297
f 386/379/296 392/381/34 440/382/34
f 372/383/289 378/384/298 426/385/298
f 379/386/299 371/387/300 419/388/300
f 380/389/301 379/386/299 427/390/299
f 381/391/302 380/389/301 428/392/301
f 382/373/292 381/391/302 429/393/302
f 384/351/280 383/369/289 431/394/289
f 378/384/298 377/353/281 425/395/303
f 369/396/304 409/367/34 457/397/34
f 370/398/305 369/396/304 417/399/304
f 371/387/300 370/398/305 418/400/305
f 373/401/306 372/383/289 420/402/289
f 374/403/307 373/401/306 421/404/306
f 375/405/308 374/403/307 422/406/307
f 376/356/282 375/405/308 423/407/308
f 399/408/31 391/347/31 439/409/31
f 396/410/309 397/411/291 445/412/291
f 398/413/310 399/408/289 447/414/289
f 395/415/311 396/410/309 444/416/309
f 394/417/312 395/415/311 443/418/311
f 393/359/283 394/417/312 442/419/312
f 408/420/313 400/361/285 448/421/285
f 407/422/314 408/420/313 456/423/313
f 397/411/291 407/422/314 455/424/314
f 406/425/315 398/413/310 446/426/316
f 405/427/317 406/425/315 454/428/318
f 404/429/319 405/427/317 453/430/317
f 403/431/320 404/429/319 452/432/319
f 401/362/286 402/433/291 450/434/291
f 415/435/321 416/355/31 464/436/31
f 414/437/322 415/435/321 463/438/321
f 413/439/323 414/437/322 462/440/322
f 411/365/288 403/431/320 451/441/320
f 402/433/291 412/442/324 460/443/324
f 412/442/324 413/439/323 461/444/323
f 465/445/325 480/446/325 466/447/326
f 467/448/327 484/449/327 477/450/328
f 473/451/329 474/452/330 470/453/329
f 474/452/330 473/451/329 471/454/329
f 474/452/330 471/454/329 475/455/329
f 474/452/330 475/455/329 469/456/331
f 475/455/329 468/457/329 469/456/331
f 468/457/329 475/455/329 476/458/329
f 477/459/329 468/457/329 476/458/329
f 476/458/329 472/460/331 477/459/329
f 467/461/329 477/459/329 472/460/331
f 478/462/329 467/461/329 472/460/331
f 467/461/329 478/462/329 479/463/329
f 479/463/329 478/462/329 466/464/329
f 466/464/329 478/462/329 465/465/329
f 478/466/332 495/467/332 465/445/325
f 479/468/333 481/469/326 483/470/333
f 469/471/334 486/472/334 474/473/335
f 497/474/336 482/475/336 496/476/336
f 469/471/334 468/477/337 486/472/334
f 474/473/335 487/478/335 470/479/338
f 470/479/338 488/480/338 473/481/339
f 490/482/340 472/483/34 476/484/340
f 492/485/341 488/486/341 487/487/342
f 487/487/342 493/488/341 492/485/341
f 487/487/342 489/489/341 493/488/341
f 487/487/342 486/490/343 489/489/341
f 489/489/341 486/490/343 485/491/341
f 485/491/341 490/492/341 489/489/341
f 494/493/341 490/492/341 485/491/341
f 490/492/341 494/493/341 491/494/343
f 484/495/341 491/494/343 494/493/341
f 495/496/341 491/494/343 484/495/341
f 484/495/341 483/497/341 495/496/341
f 483/497/341 481/498/341 495/496/341
f 481/498/341 480/499/341 495/496/341
f 478/466/332 472/500/22 495/467/332
f 479/468/333 483/470/333 467/448/327
f 468/477/337 477/450/328 485/501/337
f 473/481/339 492/502/339 471/503/344
f 475/504/345 471/503/344 489/505/345
f 476/484/340 475/504/345 490/482/340
f 2/26/22 26/506/22 27/27/22
f 31/29/23 29/74/24 4/30/24
f 17/31/17 43/89/47 41/32/25
f 38/35/26 40/507/46 22/36/14
f 24/38/18 44/48/33 46/39/27
f 14/40/7 33/508/40 31/29/23
f 15/42/28 37/509/346 35/43/29
f 19/45/31 25/510/31 47/46/30
f 24/38/18 23/82/16 42/47/32
f 46/39/27 48/511/34 1/49/34
f 29/74/24 26/512/31 2/75/31
f 35/43/29 33/508/40 14/40/7
f 32/77/39 6/93/6 5/78/4
f 36/80/51 8/94/51 21/81/8
f 22/36/14 40/507/46 42/47/32
f 1/84/52 48/513/52 25/85/52
f 39/87/53 37/509/346 15/42/28
f 41/32/25 39/87/53 10/86/53
f 11/88/19 45/514/48 43/89/47
f 47/46/30 45/514/48 11/88/19
f 20/90/54 3/515/34 27/91/34
f 20/90/54 28/92/54 30/76/38
f 6/93/6 32/77/39 34/79/41
f 8/94/51 36/80/51 38/35/26
f 59/99/59 92/101/61 50/98/58
f 165/99/172 161/95/167 164/98/170
f 342/349/31 343/409/31 295/347/31
f 336/352/280 337/354/279 289/350/279
f 337/354/279 329/395/303 281/353/281
f 328/357/282 368/436/31 320/355/31
f 345/360/284 344/516/34 296/358/34
f 353/363/286 352/421/285 304/361/285
f 363/366/288 362/368/287 314/364/287
f 362/368/287 361/397/34 313/367/34
f 341/371/290 335/394/289 287/369/289
f 334/374/293 342/517/291 294/372/291
f 340/376/294 341/371/290 293/370/290
f 339/378/295 340/376/294 292/375/294
f 338/380/297 339/378/295 291/377/295
f 344/382/34 338/380/297 290/379/296
f 330/385/298 324/402/289 276/383/289
f 323/388/300 331/390/299 283/386/299
f 331/390/299 332/392/301 284/389/301
f 332/392/301 333/393/302 285/391/302
f 333/393/302 334/374/293 286/373/292
f 335/394/289 336/352/280 288/351/280
f 329/395/303 330/385/298 282/384/298
f 361/397/34 321/399/304 273/396/304
f 321/399/304 322/400/305 274/398/305
f 322/400/305 323/388/300 275/387/300
f 324/402/289 325/404/306 277/401/306
f 325/404/306 326/406/307 278/403/307
f 326/406/307 327/407/308 279/405/308
f 327/407/308 328/357/282 280/356/282
f 343/409/31 351/414/31 303/408/31
f 349/412/291 348/416/309 300/410/309
f 351/414/289 350/426/316 302/413/310
f 348/416/309 347/418/311 299/415/311
f 347/418/311 346/419/312 298/417/312
f 346/419/312 345/360/284 297/359/283
f 352/421/285 360/423/313 312/420/313
f 360/423/313 359/424/314 311/422/314
f 359/424/314 349/412/291 301/411/291
f 350/426/316 358/428/318 310/425/315
f 358/428/318 357/430/317 309/427/317
f 357/430/317 356/432/319 308/429/319
f 356/432/319 355/441/320 307/431/320
f 354/434/291 353/363/286 305/362/286
f 368/436/31 367/438/321 319/435/321
f 367/438/321 366/440/322 318/437/322
f 366/440/322 365/444/323 317/439/323
f 355/441/320 363/366/288 315/365/288
f 364/443/324 354/434/291 306/433/291
f 365/444/323 364/443/324 316/442/324
f 438/349/31 439/409/31 391/347/31
f 432/352/280 433/354/279 385/350/279
f 433/354/279 425/395/303 377/353/281
f 424/357/282 464/436/31 416/355/31
f 441/360/284 440/516/34 392/358/34
f 449/363/286 448/421/285 400/361/285
f 459/366/288 458/368/287 410/364/287
f 458/368/287 457/397/34 409/367/34
f 437/371/290 431/394/289 383/369/289
f 430/374/293 438/517/291 390/372/291
f 436/376/294 437/371/290 389/370/290
f 435/378/295 436/376/294 388/375/294
f 434/380/297 435/378/295 387/377/295
f 440/382/34 434/380/297 386/379/296
f 426/385/298 420/402/289 372/383/289
f 419/388/300 427/390/299 379/386/299
f 427/390/299 428/392/301 380/389/301
f 428/392/301 429/393/302 381/391/302
f 429/393/302 430/374/293 382/373/292
f 431/394/289 432/352/280 384/351/280
f 425/395/303 426/385/298 378/384/298
f 457/397/34 417/399/304 369/396/304
f 417/399/304 418/400/305 370/398/305
f 418/400/305 419/388/300 371/387/300
f 420/402/289 421/404/306 373/401/306
f 421/404/306 422/406/307 374/403/307
f 422/406/307 423/407/308 375/405/308
f 423/407/308 424/357/282 376/356/282
f 439/409/31 447/414/31 399/408/31
f 445/412/291 444/416/309 396/410/309
f 447/414/289 446/426/316 398/413/310
f 444/416/309 443/418/311 395/415/311
f 443/418/311 442/419/312 394/417/312
f 442/419/312 441/360/284 393/359/283
f 448/421/285 456/423/313 408/420/313
f 456/423/313 455/424/314 407/422/314
f 455/424/314 445/412/291 397/411/291
f 446/426/316 454/428/318 406/425/315
f 454/428/318 453/430/317 405/427/317
f 453/430/317 452/432/319 404/429/319
f 452/432/319 451/441/320 403/431/320
f 450/434/291 449/363/286 401/362/286
f 464/436/31 463/438/321 415/435/321
f 463/438/321 462/440/322 414/437/322
f 462/440/322 461/444/323 413/439/323
f 451/441/320 459/366/288 411/365/288
f 460/443/324 450/434/291 402/433/291
f 461/444/323 460/443/324 412/442/324
f 480/446/325 481/469/326 466/447/326
f 484/449/327 494/518/347 477/450/328
f 495/467/332 480/446/325 465/445/325
f 479/468/333 466/447/326 481/469/326
f 486/472/334 487/478/335 474/473/335
f 468/477/337 485/501/337 486/472/334
f 487/478/335 488/480/338 470/479/338
f 488/480/338 492/502/339 473/481/339
f 490/482/340 491/519/34 472/483/34
f 472/500/22 491/520/22 495/467/332
f 483/470/333 484/449/327 467/448/327
f 477/450/328 494/518/347 485/501/337
f 492/502/339 493/521/344 471/503/344
f 471/503/344 493/521/344 489/505/345
f 475/504/345 489/505/345 490/482/340
